{"glyphs":{":":{"x_min":0,"x_max":260,"ha":260,"o":"m 127 573 q 164 573 188 545 q 211 516 211 475 q 211 437 187 405 q 163 374 127 374 q 94 374 72 401 q 49 429 49 470 q 49 512 71 542 q 92 573 127 573 z m 127 193 q 164 193 187 165 q 211 136 211 95 q 211 55 187 24 q 162 -7 127 -7 q 94 -7 72 21 q 49 48 49 90 q 49 131 70 162 q 91 193 127 193 z"},"$":{"x_min":0,"x_max":510,"ha":510,"o":"m 215 801 l 298 801 l 298 748 q 312 745 362 721 q 369 728 374 736 q 381 751 393 751 l 417 751 l 426 751 q 434 750 436 738 q 436 737 438 724 l 461 604 q 461 602 463 595 q 471 558 471 549 q 471 538 443 538 q 416 538 411 539 q 406 541 395 564 q 350 653 298 679 l 298 486 q 420 409 459 348 q 498 287 498 208 q 498 137 470 94 q 441 50 403 29 q 365 7 298 2 l 298 -78 l 215 -78 l 215 11 q 175 27 162 36 q 150 44 144 44 q 133 44 125 23 q 120 10 114 8 q 108 5 78 5 q 68 5 64 28 l 35 201 q 32 215 32 217 q 32 234 65 234 q 91 234 98 228 q 105 222 125 186 q 174 98 215 79 l 215 305 q 17 416 17 569 q 17 622 33 657 q 49 693 91 723 q 133 752 215 754 z m 214 533 l 214 702 q 181 702 161 681 q 141 660 141 637 q 141 583 214 533 z m 298 251 l 298 62 q 372 73 372 141 q 372 201 298 251 z"},"?":{"x_min":0,"x_max":417,"ha":417,"o":"m 215 249 l 181 249 q 169 249 165 254 q 161 259 161 286 q 161 377 186 444 q 202 485 209 508 q 216 531 216 582 l 216 630 l 216 658 q 216 709 206 722 q 196 735 180 735 q 162 735 152 719 q 142 704 142 684 q 142 673 146 647 q 149 629 149 620 q 149 560 83 560 q 19 560 19 637 q 19 708 67 754 q 115 801 199 801 q 286 801 342 747 q 397 692 397 611 q 397 570 381 532 q 366 494 302 433 q 260 392 251 370 q 241 349 240 306 q 238 263 234 256 q 230 249 215 249 z m 198 193 q 235 193 258 164 q 282 136 282 95 q 282 55 257 24 q 233 -7 198 -7 q 165 -7 142 21 q 120 48 120 90 q 120 131 141 162 q 163 193 198 193 z"},"<":{"x_min":0,"x_max":667,"ha":667,"o":"m 604 117 l 62 344 l 62 438 l 604 666 l 604 552 l 205 392 l 604 231 z"},"'":{"x_min":0,"x_max":238,"ha":238,"o":"m 70 537 l 44 670 l 44 792 l 194 792 l 194 670 l 171 537 z"},"=":{"x_min":0,"x_max":667,"ha":667,"o":"m 62 561 l 604 561 l 604 456 l 62 456 z m 62 328 l 604 328 l 604 223 l 62 223 z"},"a":{"x_min":0,"x_max":479,"ha":479,"o":"m 275 473 l 275 567 q 275 606 243 606 q 200 606 200 547 q 200 514 192 500 q 185 486 158 476 q 131 466 101 466 q 39 466 39 532 q 39 595 93 634 q 147 674 234 674 q 291 674 337 658 q 382 643 410 605 q 437 568 437 524 l 437 78 q 438 75 452 63 q 461 56 461 42 q 461 22 456 14 q 451 6 430 0 q 409 -7 378 -7 q 340 -7 314 7 q 289 21 275 61 q 232 17 206 5 q 180 -7 152 -7 q 90 -7 56 41 q 22 90 22 200 q 22 311 54 353 q 85 396 178 432 q 236 455 275 473 z m 275 410 q 220 385 209 355 q 198 324 198 217 q 198 139 207 118 q 216 97 237 97 q 275 97 275 160 z"},"L":{"x_min":0,"x_max":406,"ha":406,"o":"m 236 55 l 264 55 q 286 55 296 72 q 306 89 323 151 q 329 175 337 180 q 345 186 365 186 q 387 186 394 182 q 400 178 400 168 q 400 162 397 146 l 380 30 q 377 12 373 6 q 368 0 354 0 l 33 0 q 12 0 12 25 q 12 45 15 51 q 18 56 26 59 q 54 68 54 110 l 54 690 q 54 708 37 716 q 21 723 18 730 q 15 738 15 756 q 15 778 18 783 q 21 788 33 788 l 258 788 q 271 788 276 782 q 280 776 280 749 q 280 733 277 727 q 274 722 261 717 q 236 709 236 685 z"},"3":{"x_min":0,"x_max":490,"ha":490,"o":"m 290 423 q 464 378 464 218 q 464 150 432 99 q 400 48 344 20 q 287 -8 224 -8 q 138 -8 87 44 q 35 97 35 167 q 35 202 53 227 q 71 251 104 251 q 137 251 154 229 q 172 208 172 175 q 172 162 167 131 q 164 117 164 106 q 164 85 177 70 q 190 55 213 55 q 244 55 259 81 q 274 106 274 163 q 274 178 273 192 l 267 313 q 260 349 243 365 q 227 382 208 385 q 190 389 150 389 l 136 389 q 121 389 120 403 l 119 424 q 119 428 119 431 q 119 453 141 453 q 196 453 220 463 q 245 472 253 492 q 261 511 261 577 q 261 670 251 701 q 242 732 211 732 q 193 732 179 720 q 165 708 165 688 q 165 676 169 652 q 176 618 176 601 q 176 573 157 556 q 138 540 111 540 q 79 540 60 565 q 42 591 42 630 q 42 697 94 748 q 146 799 235 799 q 338 799 392 736 q 445 674 445 599 q 445 540 409 494 q 373 448 304 428 z"},";":{"x_min":0,"x_max":260,"ha":260,"o":"m 128 573 q 165 573 188 545 q 212 516 212 475 q 212 436 188 405 q 163 374 128 374 q 94 374 72 401 q 50 429 50 470 q 50 511 71 542 q 92 573 128 573 z m 46 116 q 46 146 65 169 q 83 193 118 193 q 159 193 186 161 q 214 129 214 76 q 214 -1 163 -61 q 111 -121 91 -121 q 81 -121 69 -108 q 57 -96 57 -91 q 57 -85 66 -75 q 111 -33 111 8 q 111 19 107 28 q 102 38 83 53 q 65 68 56 82 q 46 97 46 116 z"},"J":{"x_min":0,"x_max":302,"ha":302,"o":"m 36 788 l 269 788 q 283 788 287 784 q 291 780 291 762 q 291 739 287 733 q 284 727 271 723 q 256 718 253 712 q 250 707 250 687 l 250 149 q 250 37 189 -43 q 129 -123 2 -123 q -21 -123 -26 -119 q -31 -115 -31 -103 l -31 -84 q -31 -73 -29 -70 q -27 -66 -15 -65 q 68 -58 68 67 l 68 665 q 68 700 61 710 q 55 720 37 726 q 20 731 20 749 q 20 779 22 784 q 24 788 36 788 z"},"V":{"x_min":0,"x_max":479,"ha":479,"o":"m 292 307 l 366 684 q 367 688 367 694 q 367 713 342 725 q 327 733 327 740 q 327 744 327 747 l 327 755 q 327 777 329 782 q 332 788 341 788 l 462 788 q 471 788 472 783 q 474 779 474 759 q 474 736 473 731 q 472 726 466 722 q 452 712 448 705 q 444 698 438 669 l 311 35 l 303 -3 q 302 -9 293 -9 l 195 -9 q 188 -9 185 -3 q 182 3 175 35 l 48 684 q 43 708 24 719 q 15 725 12 728 q 10 731 10 742 q 10 745 11 749 q 11 754 11 759 q 11 762 11 765 l 11 772 q 11 788 22 788 l 244 788 q 255 788 255 768 q 255 767 254 739 q 253 733 244 729 q 223 718 223 696 q 223 690 224 684 z"},"\"":{"x_min":0,"x_max":474,"ha":474,"o":"m 78 537 l 52 670 l 52 792 l 202 792 l 202 670 l 179 537 z m 298 537 l 272 670 l 272 792 l 422 792 l 422 670 l 399 537 z"},"7":{"x_min":0,"x_max":490,"ha":490,"o":"m 348 631 l 144 631 q 120 631 106 599 q 100 583 95 575 q 90 568 47 568 q 32 568 32 579 l 32 584 l 46 750 q 48 771 53 775 q 59 780 80 780 l 455 780 q 465 780 468 778 q 470 777 470 769 l 470 748 q 470 734 456 708 q 423 641 377 492 q 331 343 331 168 q 331 96 336 83 q 342 70 357 61 q 368 56 368 34 q 368 8 365 4 q 363 0 350 0 l 143 0 q 130 0 126 4 q 123 8 123 28 q 123 50 126 55 q 128 61 142 67 q 150 72 153 80 q 155 89 155 109 q 155 172 185 281 q 215 389 270 489 z"},"S":{"x_min":0,"x_max":375,"ha":375,"o":"m 243 767 q 246 770 260 789 q 269 802 283 802 q 287 802 311 798 q 315 793 318 778 l 344 612 q 346 599 346 597 q 346 587 341 584 q 336 582 314 582 q 289 582 282 588 q 274 594 254 641 q 210 739 176 739 q 152 739 152 705 q 152 662 226 538 q 310 394 336 330 q 361 266 361 186 q 361 92 317 42 q 272 -9 217 -9 q 182 -9 149 11 q 136 19 129 19 q 123 19 119 10 q 111 -9 81 -9 q 69 -9 65 -5 q 61 -1 59 14 l 34 177 q 29 208 29 210 q 29 224 55 224 q 90 224 97 215 q 103 206 115 172 q 158 54 201 54 q 217 54 227 65 q 237 77 237 95 q 237 125 215 168 q 193 210 161 262 q 83 386 52 460 q 20 534 20 611 q 20 698 58 750 q 96 801 151 801 q 189 801 243 767 z"},"}":{"x_min":0,"x_max":389,"ha":389,"o":"m 358 273 q 313 271 291 254 q 269 237 260 203 q 251 168 251 90 q 251 -24 235 -58 q 218 -92 180 -115 q 143 -137 50 -137 l 24 -137 l 24 -21 q 85 -21 105 -7 q 124 7 124 50 q 124 190 142 245 q 160 300 215 332 q 155 368 139 424 q 124 481 124 613 q 124 659 105 672 q 87 684 24 684 l 24 801 l 50 801 q 135 801 178 780 q 221 758 236 716 q 251 674 251 574 q 251 496 259 462 q 268 428 290 410 q 313 393 358 391 z"},"Z":{"x_min":0,"x_max":385,"ha":385,"o":"m 54 788 l 361 788 q 371 788 371 782 q 371 779 371 776 q 370 775 368 768 l 209 57 l 239 57 q 264 57 276 75 q 288 93 297 140 q 302 165 310 172 q 317 179 336 179 q 362 179 366 177 q 371 174 371 167 q 371 165 368 148 l 346 0 l 28 0 q 19 0 19 5 q 19 12 22 27 l 189 733 l 156 733 q 125 733 106 656 q 100 627 91 620 q 82 614 59 614 q 41 614 35 615 q 30 617 30 625 q 30 629 32 642 z"},"x":{"x_min":0,"x_max":427,"ha":427,"o":"m 249 478 l 278 542 q 279 543 283 551 q 302 586 302 599 q 302 605 290 612 q 284 615 282 620 q 280 625 280 647 q 280 662 282 664 q 285 667 297 667 l 393 667 q 400 666 401 662 q 403 658 403 639 q 403 618 402 615 q 400 611 391 607 q 380 602 373 587 l 278 393 l 380 84 q 384 74 397 62 q 407 54 407 42 l 407 16 q 407 5 405 2 q 402 0 389 0 l 214 0 q 201 0 197 4 q 193 8 193 26 q 193 45 196 52 q 198 58 209 63 q 218 67 218 75 q 218 81 215 87 l 179 191 l 146 127 q 125 87 125 75 q 125 65 137 61 q 147 57 147 44 l 148 28 q 148 7 146 3 q 144 0 132 0 l 38 0 q 28 0 26 2 q 24 5 24 16 l 24 46 q 25 53 34 59 q 51 69 59 84 l 150 276 l 51 578 q 45 595 32 604 q 24 610 21 614 q 19 619 19 651 q 19 662 21 664 q 24 667 35 667 l 215 667 q 227 667 229 665 q 232 662 232 648 l 232 630 q 232 617 223 611 q 211 603 211 590 q 211 587 212 584 z"},")":{"x_min":0,"x_max":281,"ha":281,"o":"m 11 750 l 11 779 q 11 798 21 798 q 32 798 82 765 q 133 732 182 664 q 230 597 254 514 q 278 432 278 343 q 278 248 255 169 q 233 90 189 25 q 145 -39 88 -80 q 32 -121 19 -121 q 11 -121 11 -105 l 11 -63 q 11 -54 19 -47 q 38 -30 47 -10 q 57 9 67 55 q 77 101 77 161 l 77 502 q 77 527 65 646 q 50 700 21 727 q 11 735 11 750 z"},"&":{"x_min":0,"x_max":646,"ha":646,"o":"m 193 499 q 168 586 168 624 q 168 700 217 755 q 266 809 335 809 q 397 809 437 768 q 476 728 476 672 q 476 625 444 581 q 413 536 359 507 l 456 273 q 497 329 497 373 q 497 391 478 398 q 468 401 468 406 l 468 435 q 468 454 485 454 l 609 454 q 625 454 625 433 l 625 406 q 625 396 614 392 q 578 377 530 286 q 506 238 488 213 q 508 154 538 154 q 553 154 569 165 q 575 169 578 169 q 582 169 600 153 q 618 137 618 130 q 618 123 604 110 q 538 54 492 1 q 457 1 431 15 q 406 29 373 71 q 305 0 228 0 q 132 0 79 82 q 26 164 26 261 q 26 340 66 398 q 106 457 193 499 z m 335 577 q 388 606 388 663 q 388 695 374 718 q 360 741 339 741 q 324 741 314 727 q 304 714 304 696 q 304 652 335 577 z m 333 133 q 278 235 218 424 q 177 411 177 362 q 177 315 216 219 q 256 122 299 122 q 314 122 333 133 z"},"_":{"x_min":0,"x_max":500,"ha":500,"o":"m -6 -75 l 506 -75 l 506 -125 l -6 -125 z"},"v":{"x_min":0,"x_max":417,"ha":417,"o":"m 253 293 l 308 561 q 310 569 310 577 q 310 598 293 608 q 284 614 284 629 l 284 656 q 284 667 295 667 l 389 667 q 400 667 403 664 q 405 662 405 650 l 405 626 q 405 617 405 614 q 404 612 393 604 q 377 594 371 561 l 269 44 q 260 1 258 -3 q 256 -7 245 -7 l 161 -7 q 154 -6 146 32 l 39 572 q 34 596 23 604 q 10 616 10 625 q 10 658 13 663 q 16 667 31 667 l 202 667 q 216 667 221 661 q 226 655 226 631 q 226 618 223 614 q 221 610 210 604 q 197 597 197 583 q 197 574 200 561 z"},"O":{"x_min":0,"x_max":542,"ha":542,"o":"m 271 801 q 343 801 396 753 q 448 705 481 616 q 515 527 515 388 q 515 221 450 106 q 385 -9 268 -9 q 156 -9 91 104 q 27 216 27 394 q 27 576 93 688 q 159 801 271 801 z m 310 686 q 310 747 271 747 q 254 747 242 731 q 230 716 230 694 l 230 105 q 230 75 242 60 q 254 44 270 44 q 288 44 299 62 q 310 79 310 100 z"},"(":{"x_min":0,"x_max":281,"ha":281,"o":"m 271 -73 l 271 -102 q 271 -121 261 -121 q 248 -121 200 -87 q 151 -54 105 7 q 58 68 31 152 q 4 237 4 334 q 4 430 26 509 q 49 587 93 652 q 137 716 193 757 q 249 798 263 798 q 271 798 271 782 l 271 741 q 271 730 263 724 q 243 707 234 688 q 225 668 215 622 q 205 576 205 516 l 205 175 q 205 149 217 32 q 231 -23 261 -50 q 271 -58 271 -73 z"},"C":{"x_min":0,"x_max":406,"ha":406,"o":"m 340 801 l 365 801 q 374 801 378 795 q 383 788 385 759 l 396 602 q 396 597 396 593 q 396 576 391 569 q 385 562 367 562 q 346 562 337 573 q 329 584 321 626 q 301 733 264 733 q 233 733 233 656 l 233 107 q 233 52 266 52 q 307 52 312 144 q 313 170 322 180 q 331 190 358 190 q 378 190 386 183 q 395 175 395 153 q 395 83 353 37 q 311 -9 248 -9 q 188 -9 142 30 q 96 68 62 163 q 29 257 29 405 q 29 544 57 627 q 85 710 129 756 q 172 801 230 801 q 266 801 292 782 q 301 775 306 775 q 312 775 323 789 q 332 801 340 801 z"},"W":{"x_min":0,"x_max":708,"ha":708,"o":"m 324 557 l 302 684 q 299 702 283 719 q 272 729 272 739 l 272 773 q 272 788 286 788 l 486 788 q 496 788 499 783 q 501 778 501 761 q 501 735 499 730 q 496 725 486 720 q 472 712 472 704 q 472 694 476 674 l 531 361 l 589 684 q 590 689 590 694 q 590 717 565 729 q 552 734 552 762 q 552 769 551 772 l 551 776 q 551 788 569 788 l 681 788 q 693 788 696 784 q 700 780 700 766 q 700 762 699 757 l 698 738 q 696 727 682 718 q 668 709 665 688 l 547 44 q 540 6 536 -1 q 531 -9 520 -9 l 438 -9 q 424 -9 421 19 q 420 24 420 27 l 358 372 l 296 21 q 293 0 289 -4 q 285 -9 276 -9 l 191 -9 q 176 -9 170 42 q 169 52 168 57 l 51 688 q 47 708 31 718 q 17 725 17 739 l 17 777 q 17 788 31 788 l 224 788 q 234 788 238 783 q 242 778 242 759 q 242 738 240 733 q 239 728 231 721 q 221 711 221 702 q 221 690 224 674 l 286 343 z"},"A":{"x_min":0,"x_max":479,"ha":479,"o":"m 248 168 l 126 168 l 121 124 q 121 122 120 119 q 116 105 116 94 q 116 76 139 64 q 151 58 154 51 q 157 44 157 28 q 157 8 155 4 q 152 0 144 0 l 15 0 q 4 0 4 22 q 4 49 21 66 q 38 81 40 98 l 130 673 q 133 686 133 696 q 133 711 112 723 q 102 729 102 749 q 102 775 105 782 q 108 788 121 788 l 307 788 q 324 788 331 772 q 338 756 345 702 q 348 681 351 660 l 431 124 q 437 84 459 64 q 466 59 468 55 q 470 52 470 36 q 470 11 466 6 q 463 0 452 0 l 234 0 q 225 0 225 19 q 225 42 227 48 q 229 54 241 62 q 258 72 258 89 q 258 106 248 168 z m 189 604 l 135 225 l 243 225 z"},"f":{"x_min":0,"x_max":271,"ha":271,"o":"m 54 667 l 54 698 q 54 743 86 774 q 118 806 177 806 q 258 806 258 750 q 258 722 243 711 q 228 700 213 700 q 198 700 175 714 q 152 728 143 728 q 131 728 124 719 q 117 710 117 700 q 117 687 127 677 q 138 667 148 667 l 231 667 q 248 667 248 650 l 248 622 q 248 608 236 602 q 216 590 216 560 l 216 81 q 216 71 233 62 q 241 58 242 53 q 244 48 244 33 q 244 9 242 5 q 241 0 231 0 l 38 0 q 25 0 25 13 l 25 46 q 25 60 37 64 q 54 71 54 99 l 54 569 q 54 587 37 600 q 25 608 25 622 l 25 650 q 25 667 38 667 z"},"Q":{"x_min":0,"x_max":542,"ha":542,"o":"m 358 11 q 314 -9 270 -9 q 159 -9 93 104 q 26 218 26 392 q 26 573 92 687 q 158 801 273 801 q 380 801 448 691 q 516 582 516 385 q 516 215 446 99 q 474 66 507 55 q 521 51 523 45 q 525 39 525 -22 q 525 -45 525 -51 q 526 -58 526 -65 q 526 -109 485 -109 q 462 -109 434 -91 q 406 -72 358 11 z m 309 185 l 309 693 q 309 715 298 730 q 287 746 270 746 q 251 746 241 730 q 231 714 231 693 l 231 98 q 231 77 243 61 q 254 45 269 45 q 285 45 296 60 q 308 74 308 87 q 308 109 268 140 q 256 148 256 164 l 256 177 q 256 197 271 197 q 277 197 309 185 z"},"w":{"x_min":0,"x_max":646,"ha":646,"o":"m 254 281 l 288 467 l 265 579 q 262 597 249 605 q 237 613 237 624 l 237 649 q 237 667 254 667 l 432 667 q 448 667 451 662 q 454 658 454 649 l 454 624 q 454 609 439 604 q 423 599 423 589 q 423 587 425 576 l 480 290 l 532 572 q 533 576 533 581 q 533 596 518 606 q 503 617 503 638 q 503 663 505 665 q 507 667 521 667 l 609 667 q 622 667 625 664 q 629 661 629 649 l 629 628 q 629 615 618 607 q 601 595 598 579 l 497 28 q 492 0 489 -3 q 486 -7 475 -7 l 398 -7 q 384 -7 380 -3 q 376 1 372 22 l 319 305 l 265 28 q 265 27 264 18 q 261 -2 258 -4 q 255 -7 239 -7 l 167 -7 q 151 -7 149 -1 q 147 4 133 80 l 37 579 q 34 595 19 607 q 12 614 12 624 l 12 646 q 12 659 15 663 q 19 667 30 667 l 194 667 q 208 667 211 663 q 215 659 215 646 l 215 623 q 215 613 205 605 q 195 599 195 590 q 195 585 198 570 z"},"-":{"x_min":0,"x_max":302,"ha":302,"o":"m 236 430 l 263 430 q 286 430 286 415 q 286 401 268 339 q 250 276 241 264 q 232 252 215 252 q 207 252 183 253 q 139 257 115 257 q 92 257 82 241 q 76 234 73 233 q 69 231 54 231 q 29 231 23 234 q 17 237 17 249 q 17 265 33 329 q 50 393 57 400 q 65 407 93 407 q 106 407 130 405 q 154 404 172 404 q 192 404 200 407 q 208 410 219 421 q 227 430 236 430 z"},"E":{"x_min":0,"x_max":417,"ha":417,"o":"m 238 728 l 238 449 l 271 449 q 285 449 292 455 q 298 461 301 480 q 307 515 311 522 q 314 529 322 529 q 361 529 366 526 q 371 522 371 501 l 371 338 q 371 323 366 319 q 361 314 336 314 q 319 314 314 320 q 308 326 303 354 q 297 380 292 386 q 287 392 276 392 l 238 392 l 238 56 l 264 56 q 288 56 297 69 q 306 83 326 146 q 334 173 343 182 q 352 190 374 190 q 404 190 404 170 q 404 165 402 153 l 384 42 q 379 12 376 6 q 373 0 356 0 l 31 0 q 19 0 15 6 q 12 11 12 38 q 12 55 29 63 q 56 74 56 94 l 56 703 q 56 712 34 721 q 20 728 17 733 q 14 739 14 762 q 14 781 17 784 q 20 788 34 788 l 346 788 q 357 788 363 784 q 368 780 371 766 l 396 640 q 398 630 398 626 q 398 613 375 613 q 348 613 339 619 q 331 625 322 650 q 307 694 296 711 q 285 728 271 728 z"},"s":{"x_min":0,"x_max":333,"ha":333,"o":"m 279 656 l 306 521 q 307 514 307 509 q 307 496 281 496 q 263 496 255 500 q 247 504 237 523 q 225 546 201 577 q 177 607 158 607 q 151 607 145 601 q 140 594 140 584 q 140 560 211 443 q 272 342 294 285 q 316 227 316 155 q 316 78 283 35 q 250 -7 205 -7 q 177 -7 146 13 q 128 24 123 24 q 116 24 115 13 q 113 0 109 -4 q 105 -7 83 -7 q 67 -7 62 -2 q 57 2 55 15 l 31 151 q 29 161 29 163 q 29 177 62 177 q 79 177 86 172 q 92 168 103 147 q 141 67 175 67 q 197 67 197 94 q 197 117 180 152 q 164 187 117 266 q 67 350 45 406 q 22 463 22 520 q 22 598 56 636 q 89 674 136 674 q 161 674 193 657 q 209 648 215 648 q 223 648 224 658 q 226 669 232 671 q 238 674 257 674 q 269 674 273 671 q 276 668 279 656 z"},">":{"x_min":0,"x_max":667,"ha":667,"o":"m 62 666 l 604 439 l 604 344 l 62 117 l 62 231 l 461 391 l 62 552 z"},"l":{"x_min":0,"x_max":260,"ha":260,"o":"m 22 748 l 22 772 q 22 788 42 788 l 193 788 q 206 788 209 786 q 213 784 213 770 l 213 87 q 213 65 228 60 q 238 56 238 43 l 238 15 q 238 0 216 0 l 37 0 q 22 0 22 15 l 22 43 q 22 60 37 68 q 47 73 49 77 q 52 82 52 93 l 52 698 q 52 715 39 721 q 22 729 22 748 z"},"8":{"x_min":0,"x_max":490,"ha":490,"o":"m 128 398 q 36 475 36 590 q 36 682 93 737 q 149 792 244 792 q 341 792 396 739 q 451 686 451 613 q 451 517 353 456 q 414 407 439 358 q 464 309 464 243 q 464 127 397 60 q 329 -8 233 -8 q 140 -8 79 54 q 19 117 19 209 q 19 329 128 398 z m 301 495 q 342 532 342 612 q 342 728 256 728 q 217 728 194 702 q 170 676 170 644 q 170 610 199 576 q 227 542 301 495 z m 176 357 q 153 337 143 308 q 134 279 134 222 q 134 140 158 101 q 182 63 237 63 q 280 63 308 89 q 336 115 336 162 q 336 205 316 234 q 295 264 244 303 z"},"\\":{"x_min":0,"x_max":510,"ha":510,"o":"m 15 801 l 128 801 l 496 -9 l 382 -9 z"},"e":{"x_min":0,"x_max":448,"ha":448,"o":"m 206 343 l 206 144 q 206 104 221 82 q 236 59 260 59 q 297 59 320 91 q 342 122 343 177 q 344 206 349 212 q 354 218 384 218 q 411 218 418 212 q 425 207 425 186 q 425 110 376 52 q 327 -7 247 -7 q 154 -7 90 77 q 25 161 25 329 q 25 498 85 586 q 145 674 241 674 q 324 674 375 600 q 425 525 425 389 l 425 343 z m 271 404 l 271 566 q 271 612 239 612 q 206 612 206 566 l 206 404 z"},"b":{"x_min":0,"x_max":490,"ha":490,"o":"m 214 45 l 214 19 q 214 0 197 0 l 34 0 q 22 0 22 12 l 22 45 q 22 51 33 56 q 53 65 53 87 l 53 704 q 53 729 32 733 q 22 735 22 747 l 22 771 q 22 782 25 785 q 28 788 40 788 l 197 788 q 214 788 214 771 l 214 624 q 263 674 317 674 q 380 674 424 604 q 467 534 467 326 q 467 129 423 61 q 380 -7 317 -7 q 268 -7 214 45 z m 287 520 q 287 581 254 581 q 236 581 225 572 q 214 563 214 551 l 214 112 q 214 101 224 93 q 234 85 249 85 q 267 85 277 103 q 287 122 287 148 z"},"%":{"x_min":0,"x_max":750,"ha":750,"o":"m 179 806 q 242 806 289 752 q 336 699 336 604 q 336 510 290 453 q 244 396 181 396 q 114 396 68 453 q 22 510 22 598 q 22 692 71 749 q 120 806 179 806 z m 211 721 q 211 738 202 749 q 193 760 180 760 q 146 760 146 711 l 146 478 q 146 461 156 450 q 165 438 178 438 q 192 438 202 452 q 211 465 211 484 z m 485 806 l 573 806 l 263 -27 l 175 -27 z m 570 385 q 634 385 681 331 q 728 278 728 183 q 728 95 685 35 q 641 -25 573 -25 q 506 -25 460 31 q 415 88 415 177 q 415 271 463 328 q 512 385 570 385 z m 603 300 q 603 316 594 328 q 586 339 572 339 q 539 339 539 291 l 539 56 q 539 41 548 29 q 557 17 570 17 q 583 17 593 30 q 603 43 603 63 z"},"m":{"x_min":0,"x_max":729,"ha":729,"o":"m 447 598 q 517 674 578 674 q 605 674 629 663 q 653 651 668 621 q 684 591 684 556 l 684 93 q 684 81 694 68 q 707 55 707 41 l 707 18 q 707 0 690 0 l 551 0 q 522 23 522 71 l 522 531 q 522 565 489 565 q 469 565 458 554 q 447 544 447 528 l 447 87 q 447 74 461 62 q 470 55 470 47 l 470 18 q 470 0 454 0 l 312 0 q 285 26 285 71 l 285 531 q 285 563 258 563 q 248 563 221 549 q 219 548 214 545 l 214 87 q 214 74 229 62 q 239 55 239 44 l 239 18 q 239 0 221 0 l 38 0 q 24 0 24 12 l 24 44 q 24 51 38 65 q 52 79 52 87 l 52 581 q 52 600 35 607 q 24 612 24 626 l 24 651 q 24 667 43 667 l 197 667 q 214 667 214 651 l 214 602 q 278 674 344 674 q 410 674 447 598 z"},"#":{"x_min":0,"x_max":667,"ha":667,"o":"m 38 497 l 188 497 l 229 684 l 321 684 l 280 497 l 454 497 l 494 684 l 586 684 l 546 497 l 629 497 l 629 404 l 528 404 l 498 256 l 629 256 l 629 164 l 480 164 l 440 -21 l 347 -21 l 388 164 l 212 164 l 174 -21 l 81 -21 l 121 164 l 38 164 l 38 256 l 140 256 l 170 404 l 38 404 z m 263 404 l 232 257 l 406 257 l 436 404 z"},",":{"x_min":0,"x_max":260,"ha":260,"o":"m 46 116 q 46 146 65 169 q 83 193 118 193 q 159 193 186 161 q 214 129 214 76 q 214 -1 163 -61 q 111 -121 91 -121 q 81 -121 69 -108 q 57 -96 57 -91 q 57 -85 66 -75 q 111 -33 111 8 q 111 19 107 28 q 102 38 83 53 q 65 68 56 82 q 46 97 46 116 z"},"n":{"x_min":0,"x_max":490,"ha":490,"o":"m 210 601 q 269 674 343 674 q 395 674 421 641 q 448 608 448 558 l 448 90 q 448 75 460 66 q 472 60 472 31 q 472 9 468 4 q 464 0 453 0 l 315 0 q 286 25 286 65 l 286 529 q 286 567 255 567 q 234 567 210 546 l 210 90 q 210 73 228 63 q 238 57 238 42 l 238 17 q 238 0 214 0 l 41 0 q 28 0 24 4 q 21 7 21 22 l 21 40 q 21 54 30 60 q 42 68 45 76 q 48 83 48 108 l 48 585 q 48 603 32 610 q 22 615 22 626 l 22 652 q 22 667 36 667 l 195 667 q 206 667 208 664 q 210 661 210 652 z"},"h":{"x_min":0,"x_max":490,"ha":490,"o":"m 214 604 q 289 674 345 674 q 387 674 418 643 q 450 611 450 560 l 450 94 q 450 76 460 68 q 475 57 475 36 q 475 13 471 6 q 468 0 456 0 l 331 0 q 315 0 301 23 q 288 47 288 79 l 288 534 q 288 546 279 557 q 271 567 259 567 q 240 567 214 545 l 214 94 q 214 78 227 65 q 240 52 240 43 q 240 9 238 5 q 236 0 219 0 l 42 0 q 31 0 27 5 q 23 9 23 26 q 23 47 26 53 q 28 59 38 66 q 52 76 52 94 l 52 693 q 52 726 31 730 q 20 732 20 743 l 20 778 q 20 788 32 788 l 196 788 q 214 788 214 771 z"},"z":{"x_min":0,"x_max":365,"ha":365,"o":"m 198 63 l 217 63 q 242 63 251 74 q 260 85 272 126 q 280 157 288 168 q 295 179 330 179 q 345 179 345 168 q 345 166 341 139 l 325 34 q 320 4 319 2 q 317 0 300 0 l 43 0 l 29 0 q 23 0 23 4 q 23 6 23 8 l 27 21 l 169 602 l 145 602 q 130 602 122 593 q 114 584 101 543 q 87 503 79 495 q 70 487 45 487 q 25 487 25 498 q 25 501 26 508 l 48 645 q 50 661 54 664 q 59 667 74 667 l 339 667 q 346 667 346 661 q 346 659 342 646 l 341 639 z"},"B":{"x_min":0,"x_max":542,"ha":542,"o":"m 361 449 q 451 418 484 372 q 518 326 518 245 q 518 121 456 61 q 394 0 264 0 l 25 0 q 11 0 11 15 l 11 44 q 11 57 24 62 q 52 76 52 101 l 52 690 q 52 703 48 707 q 44 711 24 721 q 15 725 13 730 q 11 736 11 757 q 11 775 16 782 q 21 788 34 788 l 302 788 q 398 788 450 739 q 502 689 502 613 q 502 550 461 507 q 420 464 361 449 z m 233 733 l 233 477 l 259 477 q 284 477 298 491 q 312 505 314 538 q 316 571 316 621 q 316 691 302 712 q 289 733 259 733 z m 233 421 l 233 56 q 278 56 294 68 q 309 81 312 117 q 314 153 314 239 q 314 256 313 319 q 312 381 307 394 q 303 406 292 414 q 281 421 259 421 z"},"K":{"x_min":0,"x_max":532,"ha":532,"o":"m 362 566 l 489 100 q 495 76 513 67 q 525 62 525 41 q 525 39 523 12 q 522 0 503 0 l 309 0 q 298 0 294 4 q 291 8 291 25 q 291 28 292 51 q 293 60 304 63 q 319 69 319 82 q 319 85 318 90 l 250 336 l 233 299 l 233 100 q 233 75 255 62 q 265 57 265 38 q 265 15 261 8 q 257 0 242 0 l 37 0 q 26 0 21 5 q 17 9 17 31 q 17 52 21 58 q 24 63 34 68 q 52 75 52 94 l 52 681 q 52 703 34 713 q 22 721 20 725 q 18 730 18 745 q 18 778 20 783 q 22 788 34 788 l 257 788 q 272 788 272 775 q 272 736 271 730 q 270 724 257 716 q 233 704 233 685 l 233 435 l 340 676 q 349 696 349 707 q 349 713 337 722 q 324 730 322 737 q 319 743 319 769 q 319 788 333 788 l 462 788 q 474 788 476 784 q 479 779 479 758 q 479 736 475 731 q 472 726 456 719 q 443 714 439 711 q 436 708 431 699 z"},"R":{"x_min":0,"x_max":542,"ha":542,"o":"m 240 347 l 240 104 q 240 87 242 82 q 245 76 255 69 q 268 61 268 42 q 268 13 263 7 q 258 0 244 0 l 38 0 q 20 0 20 25 q 20 50 21 57 q 23 64 31 67 q 58 78 58 109 l 58 681 q 58 712 35 719 q 23 723 20 727 q 17 731 17 750 q 17 788 38 788 l 308 788 q 388 788 451 728 q 515 667 515 565 q 515 420 367 375 q 502 346 502 204 l 502 88 q 502 73 513 66 q 526 57 526 39 q 526 11 523 5 q 520 0 505 0 l 374 0 q 351 0 335 27 q 320 53 320 92 l 320 289 q 320 347 262 347 z m 240 732 l 240 403 l 272 403 q 320 403 320 500 l 320 658 q 320 699 305 716 q 290 732 257 732 z"},"T":{"x_min":0,"x_max":469,"ha":469,"o":"m 145 733 l 123 733 q 112 733 105 719 q 99 705 91 641 q 88 613 81 606 q 73 599 51 599 q 30 599 24 604 q 18 609 18 625 q 18 633 19 642 l 24 756 q 25 776 31 782 q 37 788 61 788 l 418 788 q 434 788 438 784 q 441 780 443 756 l 451 655 q 452 644 452 631 q 452 617 448 609 q 445 601 425 601 q 400 601 393 606 q 386 611 382 637 q 374 679 365 706 q 355 733 342 733 l 327 733 l 327 106 q 327 80 351 69 q 360 65 364 59 q 367 53 367 33 q 367 8 362 4 q 358 0 342 0 l 127 0 q 115 0 111 5 q 107 10 107 33 q 107 60 123 66 q 137 72 141 77 q 145 83 145 97 z"},"P":{"x_min":0,"x_max":542,"ha":542,"o":"m 239 269 l 239 106 q 239 78 263 69 q 275 64 280 57 q 284 49 284 29 q 284 9 279 5 q 273 0 257 0 l 36 0 q 19 0 19 31 q 19 55 21 61 q 23 66 38 71 q 50 75 53 79 q 57 84 57 95 l 57 685 q 57 706 31 719 q 17 726 17 741 l 16 764 q 16 779 20 783 q 23 788 36 788 l 286 788 q 394 788 458 719 q 522 650 522 528 q 522 459 503 405 q 483 352 453 326 q 423 301 384 285 q 344 269 300 269 z m 239 734 l 239 325 l 273 325 q 291 325 304 344 q 318 363 318 408 l 318 652 q 318 734 264 734 z"},"|":{"x_min":0,"x_max":390,"ha":390,"o":"m 142 801 l 248 801 l 248 -125 l 142 -125 z"},"t":{"x_min":0,"x_max":271,"ha":271,"o":"m 47 600 l 28 600 q 20 600 17 602 q 15 604 15 613 l 15 648 q 15 658 17 661 q 20 664 30 665 q 65 670 101 704 q 137 738 144 776 q 146 790 150 793 q 153 796 165 796 l 196 796 q 209 796 209 779 l 209 667 l 239 667 q 256 667 256 651 l 256 616 q 256 600 239 600 l 209 600 l 209 94 q 209 68 232 57 q 243 52 247 44 q 250 36 250 16 q 250 3 248 1 q 247 0 236 0 l 82 0 q 47 31 47 94 z"},"M":{"x_min":0,"x_max":583,"ha":583,"o":"m 374 788 l 547 788 q 564 788 570 783 q 575 778 575 757 q 575 738 572 730 q 568 723 554 716 q 541 710 538 703 q 534 696 534 681 l 534 101 q 534 88 537 83 q 540 77 553 70 q 571 62 571 46 q 571 8 569 4 q 566 0 552 0 l 334 0 q 320 0 320 24 q 320 44 321 54 q 323 64 339 71 q 358 78 358 97 l 358 508 l 270 176 l 216 176 l 130 498 l 130 98 q 130 79 147 69 q 169 59 169 31 q 169 0 147 0 l 42 0 q 23 0 23 30 q 23 51 39 62 q 50 71 53 77 q 56 83 56 97 l 56 661 q 56 684 52 697 q 47 709 34 717 q 19 725 19 733 l 20 754 q 20 777 23 782 q 25 788 36 788 l 216 788 l 294 486 z"},"g":{"x_min":0,"x_max":479,"ha":479,"o":"m 301 667 q 317 683 317 692 q 317 706 298 717 q 271 732 271 755 q 271 800 334 800 q 372 800 390 785 q 407 769 407 747 q 407 704 344 646 q 452 569 452 436 q 452 322 389 256 q 327 189 246 189 q 220 189 190 198 q 173 202 165 202 q 149 202 132 190 q 115 178 115 165 q 115 141 168 141 l 301 141 q 373 141 418 111 q 463 82 463 17 q 463 -121 229 -121 q 139 -121 84 -103 q 29 -84 29 -45 q 29 -24 40 -12 q 51 0 80 14 q 83 16 91 20 q 24 49 24 117 q 24 193 120 231 q 30 303 30 425 q 30 534 91 604 q 152 675 240 675 q 265 675 301 667 z m 276 544 q 276 608 241 608 q 224 608 213 588 q 203 567 203 544 l 203 302 q 203 282 213 268 q 223 255 239 255 q 255 255 266 269 q 276 284 276 306 z m 155 2 q 124 -10 124 -29 q 124 -47 146 -57 q 169 -66 240 -66 q 363 -66 363 -23 q 363 1 322 1 l 187 1 q 170 1 155 2 z"},"j":{"x_min":0,"x_max":260,"ha":260,"o":"m 151 806 q 180 806 201 795 q 223 784 223 766 q 223 740 188 720 q 153 700 110 700 q 37 700 37 745 q 37 770 72 788 q 107 806 151 806 z m -9 -121 l -9 -78 q -9 -70 -7 -67 q -5 -64 6 -62 q 36 -53 44 -31 q 53 -8 53 6 l 53 564 q 53 593 37 604 q 27 610 26 614 q 24 617 24 627 l 24 656 q 25 667 38 667 l 196 667 q 215 667 215 647 l 215 106 q 215 35 188 -17 q 160 -69 111 -95 q 62 -122 -9 -121 z"},"i":{"x_min":0,"x_max":260,"ha":260,"o":"m 160 806 q 215 806 215 769 q 215 739 178 719 q 141 699 94 699 q 34 699 34 739 q 34 771 76 789 q 119 806 160 806 z m 23 619 l 23 651 q 23 667 42 667 l 198 667 q 215 667 215 651 l 215 89 q 215 78 216 74 q 218 71 225 68 q 243 61 243 38 q 243 11 240 5 q 238 0 225 0 l 35 0 q 28 1 26 6 q 24 11 24 33 q 24 60 37 64 q 53 69 53 83 l 53 570 q 53 599 32 604 q 23 607 23 619 z"},"y":{"x_min":0,"x_max":417,"ha":417,"o":"m 256 292 l 305 549 q 307 555 307 558 q 311 573 311 577 q 311 590 293 604 q 285 610 283 618 q 281 626 281 651 q 281 667 294 667 l 378 667 q 393 667 398 661 q 403 655 403 630 q 403 616 401 613 q 399 611 390 604 q 376 595 370 561 l 289 131 q 267 19 257 -13 q 246 -45 224 -70 q 202 -95 172 -108 q 142 -121 102 -121 q 59 -121 36 -100 q 13 -80 13 -47 q 13 -23 28 -9 q 44 5 67 5 q 101 5 115 -35 q 122 -55 135 -55 q 160 -55 160 -29 q 160 -21 150 26 l 46 532 q 39 569 33 583 q 28 597 19 601 q 10 605 10 619 l 10 646 q 10 660 14 664 q 18 667 29 667 l 201 667 q 215 667 219 664 q 224 661 224 649 q 224 625 222 618 q 220 611 210 607 q 196 601 196 583 q 196 572 199 555 z"},"@":{"x_min":0,"x_max":930,"ha":930,"o":"m 577 575 l 696 580 l 607 273 q 592 223 592 198 q 592 182 603 171 q 615 159 632 159 q 667 159 719 199 q 772 238 807 309 q 842 379 842 462 q 842 593 757 682 q 672 770 527 770 q 415 770 315 716 q 216 663 157 553 q 98 443 98 320 q 98 148 207 42 q 315 -65 481 -65 q 613 -65 725 9 q 836 83 880 205 l 910 205 q 854 62 740 -15 q 626 -92 479 -92 q 293 -92 170 29 q 46 149 46 336 q 46 534 179 668 q 312 801 519 801 q 682 801 776 708 q 870 614 870 470 q 870 329 787 226 q 704 124 577 124 q 524 124 501 150 q 478 176 478 211 q 478 235 489 278 q 400 124 321 124 q 282 124 260 154 q 239 185 239 234 q 239 309 273 389 q 307 469 373 531 q 439 594 491 594 q 549 594 561 518 z m 538 493 q 538 523 528 541 q 519 559 503 559 q 462 559 413 444 q 365 329 365 259 q 365 240 373 227 q 380 213 393 213 q 413 213 447 252 q 480 292 509 362 q 538 432 538 493 z"},".":{"x_min":0,"x_max":260,"ha":260,"o":"m 127 193 q 164 193 187 165 q 211 136 211 95 q 211 55 187 24 q 162 -7 127 -7 q 94 -7 72 21 q 49 48 49 90 q 49 131 70 162 q 91 193 127 193 z"},"p":{"x_min":0,"x_max":490,"ha":490,"o":"m 211 619 q 240 646 264 660 q 288 674 320 674 q 396 674 430 596 q 465 518 465 347 q 465 235 454 164 q 443 92 404 46 q 365 0 314 0 q 253 0 211 67 l 211 -42 q 211 -58 229 -64 q 248 -71 248 -88 l 248 -106 q 248 -116 245 -118 q 243 -121 232 -121 l 44 -121 q 24 -121 24 -111 l 24 -93 q 24 -75 41 -65 q 49 -60 49 -49 l 49 583 q 49 601 37 610 q 28 616 26 620 q 24 623 24 634 l 24 649 q 24 662 27 665 q 30 667 42 667 l 190 667 q 205 667 208 664 q 211 660 211 646 z m 286 527 q 286 557 274 572 q 262 587 247 587 q 236 587 224 574 q 211 562 211 545 l 211 135 q 211 122 225 107 q 238 93 256 93 q 286 93 286 139 z"},"X":{"x_min":0,"x_max":479,"ha":479,"o":"m 267 556 l 306 639 q 335 698 335 709 q 335 720 320 726 q 308 731 308 752 q 308 775 310 782 q 312 788 322 788 l 436 788 q 448 788 448 775 l 448 740 q 448 730 434 722 q 420 713 417 706 l 300 458 l 424 103 q 430 87 433 83 q 436 79 445 73 q 457 67 460 61 q 464 56 464 41 q 464 19 460 9 q 457 0 445 0 l 238 0 q 223 0 223 14 l 223 45 q 223 60 236 67 q 252 77 252 88 q 252 102 246 120 l 200 244 l 141 120 q 129 95 129 83 q 129 74 147 63 q 151 61 154 57 q 156 54 156 29 q 156 8 154 4 q 152 0 143 0 l 25 0 q 10 0 10 14 l 10 50 q 10 58 26 67 q 39 74 46 83 q 52 92 65 120 l 167 340 l 43 695 q 37 714 19 729 q 10 736 10 743 l 10 773 q 10 788 29 788 l 233 788 q 246 788 246 774 l 246 740 q 246 727 231 722 q 216 716 216 707 q 216 694 224 673 z"},"*":{"x_min":0,"x_max":500,"ha":500,"o":"m 193 667 q 209 702 221 745 q 231 781 237 790 q 243 799 253 799 q 262 799 267 791 q 272 783 280 756 q 294 704 312 667 q 335 667 392 678 q 422 685 432 685 q 451 685 451 669 q 451 656 424 628 q 392 594 370 561 q 394 525 421 496 q 450 464 450 451 q 450 436 429 436 q 417 436 392 442 q 348 455 312 456 q 294 422 278 363 q 270 334 266 327 q 261 320 251 320 q 240 320 234 330 q 228 340 220 372 q 208 420 189 456 q 154 456 97 441 q 75 436 66 436 q 49 436 49 451 q 49 461 80 495 q 115 532 131 561 q 98 608 72 634 q 49 656 49 667 q 49 686 71 686 q 81 686 101 680 q 145 668 193 667 z"},"Y":{"x_min":0,"x_max":479,"ha":479,"o":"m 333 353 l 333 97 q 333 78 358 69 q 369 65 373 61 q 377 57 377 26 q 377 8 374 4 q 370 0 358 0 l 126 0 q 109 0 109 15 l 109 44 q 109 62 132 69 q 144 73 147 79 q 151 84 151 100 l 151 340 l 53 688 q 46 713 26 722 q 15 727 15 738 l 15 775 q 15 788 29 788 l 236 788 q 245 788 248 783 q 251 778 251 757 q 251 736 249 731 q 248 725 240 721 q 229 713 229 702 q 229 696 231 688 l 295 470 l 361 688 q 361 690 361 697 q 361 712 342 729 q 333 737 333 743 l 333 772 q 333 788 348 788 l 455 788 q 469 788 469 772 l 469 741 q 469 733 458 725 q 440 712 433 688 z"},"c":{"x_min":0,"x_max":385,"ha":385,"o":"m 207 578 l 207 105 q 207 88 217 74 q 227 61 245 61 q 269 61 282 91 q 296 121 296 169 l 295 183 q 295 208 305 213 q 314 218 337 218 q 357 218 365 211 q 372 204 372 180 q 372 104 333 49 q 293 -7 220 -7 q 135 -7 80 79 q 25 165 25 322 q 25 440 53 519 q 81 597 121 635 q 161 674 220 674 q 291 674 332 627 q 374 580 374 518 q 374 485 360 463 q 346 440 318 440 q 290 440 274 462 q 259 483 259 516 q 259 529 262 547 q 266 568 266 581 q 266 593 256 602 q 247 611 235 611 q 223 611 215 601 q 207 590 207 578 z"},"!":{"x_min":0,"x_max":260,"ha":260,"o":"m 146 248 l 114 248 q 104 248 102 251 q 100 254 100 272 q 100 299 66 521 q 41 697 41 712 q 41 748 65 774 q 89 799 133 799 q 175 799 198 772 q 220 744 220 708 q 220 682 184 450 q 161 298 160 275 q 160 254 158 251 q 155 248 146 248 z m 125 193 q 162 193 185 164 q 208 136 208 95 q 208 56 185 25 q 161 -7 125 -7 q 91 -7 69 21 q 47 48 47 90 q 47 131 68 162 q 89 193 125 193 z"},"/":{"x_min":0,"x_max":510,"ha":510,"o":"m 380 801 l 494 801 l 130 -9 l 17 -9 z"},"[":{"x_min":0,"x_max":260,"ha":260,"o":"m 230 -112 l 65 -112 q 51 -112 47 -107 q 43 -103 43 -87 l 43 758 q 43 778 48 783 q 52 788 65 788 l 225 788 q 242 788 246 783 q 250 778 250 752 q 250 737 246 734 q 243 730 229 729 q 216 727 213 723 q 209 719 209 703 l 209 -30 q 209 -42 213 -46 q 216 -50 228 -52 q 247 -56 247 -69 q 247 -103 245 -108 q 243 -112 230 -112 z"},"6":{"x_min":0,"x_max":490,"ha":490,"o":"m 206 526 q 250 576 302 576 q 371 576 420 507 q 470 438 470 308 q 470 170 408 81 q 346 -8 244 -8 q 176 -8 127 29 q 79 65 49 147 q 19 228 19 358 q 19 515 63 611 q 108 708 191 750 q 274 792 369 792 q 394 792 404 789 q 413 785 413 775 q 413 739 410 732 q 406 725 386 725 q 340 725 292 703 q 244 682 225 643 q 206 604 206 526 z m 281 456 q 281 472 272 483 q 263 494 248 494 q 210 494 210 438 l 210 89 q 210 74 221 64 q 231 55 245 55 q 262 55 271 69 q 281 84 281 130 z"},"r":{"x_min":0,"x_max":354,"ha":354,"o":"m 196 537 q 202 549 210 578 q 229 642 246 658 q 264 674 286 674 q 315 674 330 646 q 345 618 345 576 q 345 486 294 486 q 269 486 255 516 q 247 533 238 533 q 216 533 216 484 l 216 94 q 216 76 233 67 q 250 59 250 40 l 250 18 q 250 6 247 3 q 245 0 232 0 l 48 0 q 29 0 29 18 l 29 45 q 29 59 37 63 q 54 71 54 88 l 54 580 q 54 597 42 604 q 29 611 27 615 q 25 620 25 641 q 25 658 31 663 q 36 667 48 667 l 180 667 q 189 667 192 662 q 196 657 196 637 z"},"2":{"x_min":0,"x_max":490,"ha":490,"o":"m 119 146 l 363 146 q 380 146 389 159 q 399 171 406 206 q 409 220 415 224 q 421 229 442 229 q 472 229 472 216 q 472 211 471 206 q 468 192 460 143 q 452 88 443 48 q 435 8 430 4 q 426 0 408 0 l 22 0 l 22 114 q 22 138 63 175 q 84 193 158 287 q 233 380 255 439 q 277 498 277 597 q 277 679 261 703 q 245 727 215 727 q 193 727 180 714 q 167 701 167 681 q 167 669 170 652 q 173 630 173 610 q 173 565 153 541 q 132 517 101 517 q 68 517 48 543 q 29 569 29 606 q 29 684 86 738 q 144 792 241 792 q 339 792 402 729 q 465 667 465 569 q 465 514 443 464 q 420 414 382 375 q 343 336 268 278 q 166 198 119 146 z"},"{":{"x_min":0,"x_max":389,"ha":389,"o":"m 31 273 l 31 391 q 76 393 98 410 q 121 427 129 461 q 138 495 138 574 q 138 657 146 694 q 154 731 177 755 q 199 778 237 790 q 275 801 339 801 l 365 801 l 365 684 q 300 684 283 671 q 266 658 266 613 q 266 477 249 422 q 232 367 174 332 q 219 308 242 259 q 265 210 265 50 q 265 12 276 1 q 288 -10 300 -15 q 312 -21 365 -21 l 365 -137 l 339 -137 q 241 -137 206 -113 q 170 -89 154 -57 q 138 -25 138 90 q 138 168 130 202 q 122 235 99 253 q 76 271 31 273 z"},"9":{"x_min":0,"x_max":490,"ha":490,"o":"m 278 260 q 234 211 181 211 q 115 211 67 281 q 19 350 19 475 q 19 547 41 620 q 63 692 113 742 q 162 792 244 792 q 348 792 408 707 q 469 623 469 420 q 469 189 371 91 q 273 -8 115 -8 q 86 -8 80 -5 q 74 -1 74 16 q 74 43 77 50 q 81 57 88 58 q 161 66 199 82 q 237 98 258 134 q 279 169 279 228 q 279 238 278 260 z m 278 689 q 278 731 243 731 q 208 731 208 685 l 208 334 q 208 315 217 303 q 227 291 241 291 q 258 291 268 307 q 278 323 278 343 z"}," ":{"x_min":0,"x_max":245,"ha":245,"o":""},"I":{"x_min":0,"x_max":292,"ha":292,"o":"m 15 747 l 15 773 q 15 788 31 788 l 265 788 q 278 788 282 785 q 286 781 286 764 q 286 738 283 732 q 280 726 271 724 q 241 719 241 686 l 241 99 q 241 80 263 69 q 277 62 280 57 q 283 52 283 39 l 283 20 q 283 4 280 2 q 277 0 265 0 l 26 0 q 13 0 13 11 q 13 46 15 54 q 18 62 32 66 q 59 73 59 94 l 59 673 q 59 694 54 704 q 49 715 32 722 q 20 727 17 731 q 15 735 15 747 z"},"H":{"x_min":0,"x_max":552,"ha":552,"o":"m 237 450 l 315 450 l 315 696 q 315 708 313 711 q 311 715 301 721 q 291 727 291 749 q 291 776 293 782 q 295 788 307 788 l 519 788 q 533 788 536 783 q 539 778 539 750 q 539 732 535 729 q 532 726 516 718 q 498 708 498 688 l 498 103 q 498 80 519 66 q 536 56 536 47 l 536 16 q 536 6 533 3 q 530 0 516 0 l 303 0 q 292 0 290 4 q 287 8 287 40 q 287 56 300 65 q 315 76 315 90 l 315 395 l 237 395 l 237 87 q 237 72 250 62 q 263 52 263 34 q 263 8 260 4 q 257 0 248 0 l 34 0 q 23 0 21 4 q 19 9 19 39 q 19 53 21 58 q 23 62 35 68 q 55 79 55 97 l 55 688 q 55 702 37 714 q 19 728 19 752 q 19 778 23 783 q 27 788 42 788 l 242 788 q 255 788 260 783 q 265 779 265 762 l 265 739 q 264 730 252 723 q 237 715 237 696 z"},"4":{"x_min":0,"x_max":490,"ha":490,"o":"m 406 282 l 447 282 q 463 282 468 277 q 473 271 473 255 l 473 227 q 473 214 469 209 q 465 205 450 205 l 406 205 l 406 113 q 406 81 434 66 q 449 58 449 39 l 449 17 q 449 6 445 3 q 441 0 427 0 l 221 0 q 207 0 203 5 q 200 10 200 40 q 200 57 214 65 q 233 76 233 95 l 233 205 l 40 205 q 24 205 21 209 q 18 212 18 226 l 18 282 q 18 291 20 296 q 21 301 41 333 l 315 771 q 322 783 333 787 q 343 792 371 792 q 398 792 402 788 q 406 785 406 771 z m 233 521 l 83 282 l 233 282 z"},"~":{"x_min":0,"x_max":667,"ha":667,"o":"m 604 368 q 523 300 458 300 q 426 300 398 308 q 370 317 307 348 q 244 378 210 378 q 140 378 62 307 l 62 416 q 140 482 217 482 q 264 482 349 441 q 426 404 461 404 q 525 404 604 477 z"},"D":{"x_min":0,"x_max":542,"ha":542,"o":"m 52 108 l 52 700 q 50 709 34 714 q 21 718 17 726 q 13 733 13 758 q 13 776 19 782 q 25 788 52 788 l 286 788 q 386 788 451 696 q 517 604 517 389 q 517 194 454 97 q 390 0 286 0 l 28 0 q 17 0 13 5 q 9 10 9 28 q 9 49 10 54 q 12 60 24 66 q 52 81 52 108 z m 233 730 l 233 54 l 259 54 q 287 54 299 76 q 312 99 312 157 l 312 656 q 312 689 296 709 q 281 730 252 730 z"},"^":{"x_min":0,"x_max":490,"ha":490,"o":"m 127 397 l 37 397 l 209 788 l 280 788 l 453 397 l 365 397 l 244 688 z"},"0":{"x_min":0,"x_max":490,"ha":490,"o":"m 248 792 q 310 792 363 741 q 416 690 442 603 q 468 516 468 396 q 468 197 402 94 q 336 -8 241 -8 q 151 -8 86 89 q 21 187 21 388 q 21 588 86 690 q 150 792 248 792 z m 278 667 q 278 701 270 715 q 262 728 244 728 q 208 728 208 667 l 208 101 q 208 53 242 53 q 258 53 268 67 q 278 82 278 101 z"},"F":{"x_min":0,"x_max":406,"ha":406,"o":"m 234 396 l 234 100 q 234 77 263 69 q 277 65 281 60 q 284 55 284 37 q 284 10 280 5 q 276 0 260 0 l 37 0 q 18 0 12 8 q 7 15 7 39 q 7 54 10 58 q 12 62 25 68 q 43 76 48 82 q 52 87 52 99 l 52 688 q 52 701 47 708 q 42 715 25 722 q 13 728 13 746 q 13 748 13 768 q 16 788 37 788 l 341 788 q 355 788 360 784 q 366 779 369 762 q 369 759 370 754 l 392 646 q 394 635 394 628 q 394 612 371 612 q 339 612 332 624 q 324 636 307 682 q 297 710 287 720 q 277 730 256 730 q 250 730 234 729 l 234 450 l 259 450 q 279 450 286 459 q 294 468 297 490 q 302 515 306 522 q 310 529 338 529 q 357 529 362 525 q 366 521 366 510 l 366 333 q 366 322 362 318 q 358 315 337 315 q 312 315 305 323 q 298 332 295 364 q 291 396 259 396 z"},"`":{"x_min":0,"x_max":333,"ha":333,"o":"m 204 729 l 63 809 q 37 824 37 834 q 37 847 83 847 q 90 847 98 846 l 121 846 q 151 846 161 843 q 171 840 181 824 l 245 729 z"},"k":{"x_min":0,"x_max":500,"ha":500,"o":"m 213 214 l 213 83 q 213 70 226 63 q 236 58 236 44 l 236 18 q 236 0 217 0 l 41 0 q 23 0 23 22 l 23 45 q 23 53 37 64 q 49 73 50 77 q 51 81 51 89 l 51 674 q 51 705 32 719 q 26 724 25 728 q 24 731 24 747 q 24 778 26 783 q 27 788 41 788 l 195 788 q 208 788 210 784 q 213 781 213 767 l 213 343 l 303 549 q 312 568 312 575 q 312 591 289 601 q 279 604 275 610 q 272 616 272 634 q 272 657 276 662 q 281 667 293 667 l 428 667 q 439 666 439 641 q 439 619 435 611 q 431 604 417 596 q 395 585 386 567 l 352 495 l 456 94 q 460 76 476 65 q 487 58 487 44 l 487 18 q 487 0 467 0 l 335 0 q 311 0 303 32 l 248 282 z"},"u":{"x_min":0,"x_max":490,"ha":490,"o":"m 47 592 q 41 595 37 597 q 25 602 22 607 q 19 612 19 628 q 19 637 18 643 q 18 658 22 662 q 26 667 41 667 l 192 667 q 204 667 206 664 q 208 660 208 647 l 208 166 q 208 103 243 103 q 270 103 283 125 l 283 577 q 283 595 266 604 q 258 609 256 615 q 254 621 254 653 q 254 667 271 667 l 431 667 q 441 667 443 664 q 445 661 445 648 l 445 89 q 445 73 458 66 q 475 58 475 37 q 475 8 472 4 q 470 0 457 0 l 309 0 q 294 0 289 5 q 284 10 284 27 l 284 40 q 284 59 283 62 q 206 -7 152 -7 q 105 -7 76 24 q 47 55 47 143 z"},"]":{"x_min":0,"x_max":260,"ha":260,"o":"m 30 788 l 196 788 q 210 788 214 783 q 218 778 218 763 l 218 -83 q 218 -102 213 -107 q 208 -112 196 -112 l 36 -112 q 19 -112 15 -107 q 11 -102 11 -77 q 11 -62 14 -58 q 18 -55 31 -53 q 44 -51 48 -47 q 51 -43 51 -27 l 51 705 q 51 718 48 722 q 45 726 32 728 q 14 731 14 745 q 14 779 16 783 q 18 788 30 788 z"},"U":{"x_min":0,"x_max":438,"ha":438,"o":"m 35 788 l 246 788 q 257 788 260 783 q 263 779 263 755 q 263 731 249 723 q 238 717 234 711 q 230 705 230 687 l 230 140 q 230 117 243 103 q 256 89 275 89 q 293 89 306 105 q 319 121 319 140 l 319 687 q 319 701 316 706 q 313 712 303 720 q 286 733 286 759 q 286 780 291 784 q 295 788 304 788 l 410 788 q 427 788 427 771 l 427 747 q 427 731 425 727 q 423 723 414 720 q 391 712 391 688 l 391 155 q 391 80 348 35 q 304 -9 227 -9 q 140 -9 94 38 q 48 85 48 173 l 48 688 q 48 708 27 718 q 16 723 14 727 q 12 731 12 745 q 12 773 15 781 q 19 788 35 788 z"},"o":{"x_min":0,"x_max":479,"ha":479,"o":"m 239 674 q 331 674 393 592 q 454 509 454 347 q 454 172 392 83 q 329 -7 236 -7 q 171 -7 124 34 q 77 75 51 144 q 25 212 25 331 q 25 500 84 587 q 143 674 239 674 z m 274 551 q 274 612 239 612 q 201 612 201 538 l 201 132 q 201 58 236 58 q 274 58 274 132 z"},"N":{"x_min":0,"x_max":458,"ha":458,"o":"m 136 447 l 136 102 q 136 81 160 70 q 181 61 181 43 q 181 8 179 4 q 177 0 165 0 l 35 0 q 25 0 22 8 q 20 15 20 45 q 20 59 33 64 q 59 75 59 89 l 59 667 q 59 688 55 698 q 51 708 37 715 q 25 721 21 728 q 17 735 17 754 q 17 788 35 788 l 170 788 l 334 408 l 334 688 q 334 711 311 721 q 296 728 292 736 q 288 744 288 767 q 288 782 291 785 q 294 788 302 788 l 437 788 q 448 787 448 756 q 448 738 446 733 q 444 728 436 725 q 419 718 415 711 q 410 705 410 694 l 410 0 l 327 0 z"},"+":{"x_min":0,"x_max":667,"ha":667,"o":"m 61 443 l 280 443 l 280 664 l 385 664 l 385 443 l 605 443 l 605 338 l 385 338 l 385 120 l 280 120 l 280 338 l 61 338 z"},"G":{"x_min":0,"x_max":542,"ha":542,"o":"m 364 48 q 320 -9 255 -9 q 155 -9 91 109 q 27 228 27 390 q 27 573 99 687 q 171 801 270 801 q 317 801 354 777 q 366 770 372 770 q 381 770 387 786 q 393 801 408 801 l 414 801 l 429 800 q 445 798 449 778 l 480 623 q 485 599 485 591 q 485 574 459 574 q 434 574 426 581 q 419 588 397 632 q 368 692 345 715 q 323 738 298 738 q 231 738 231 632 l 231 107 q 231 50 268 50 q 308 50 308 107 l 308 363 q 308 388 291 395 q 272 403 272 427 q 272 453 277 458 q 282 463 298 463 l 504 463 q 520 463 525 458 q 530 452 530 433 q 530 413 527 406 q 523 399 511 395 q 494 389 494 368 l 494 36 q 494 6 490 -1 q 486 -9 469 -9 q 454 -9 448 -7 q 441 -4 429 7 q 396 39 364 48 z"},"q":{"x_min":0,"x_max":490,"ha":490,"o":"m 279 54 q 223 0 176 0 q 101 0 63 74 q 25 147 25 342 q 25 465 44 533 q 63 601 110 637 q 158 674 215 674 q 295 674 344 606 q 360 617 380 648 q 394 668 400 671 q 407 674 433 674 q 440 674 441 669 l 441 -33 q 441 -47 444 -52 q 447 -57 458 -65 q 470 -74 470 -83 l 470 -108 q 470 -116 468 -118 q 465 -121 454 -121 l 257 -121 q 247 -121 245 -118 q 243 -115 243 -105 l 243 -88 q 243 -76 246 -72 q 248 -67 258 -64 q 279 -58 279 -33 z m 279 543 q 279 597 242 597 q 224 597 215 580 q 206 563 206 543 l 206 149 q 206 122 216 106 q 227 91 243 91 q 255 91 267 104 q 279 116 279 138 z"},"d":{"x_min":0,"x_max":490,"ha":490,"o":"m 279 623 l 279 708 q 279 729 262 731 q 252 731 250 736 q 247 740 247 752 l 247 771 q 247 783 250 785 q 253 788 265 788 l 420 788 q 434 788 437 784 q 441 779 441 764 l 441 85 q 441 63 463 56 q 475 53 475 41 l 475 16 q 475 0 461 0 l 291 0 q 282 0 281 3 q 279 6 279 29 q 279 34 279 42 q 226 -7 180 -7 q 25 -7 25 309 q 25 534 67 604 q 108 674 174 674 q 225 674 279 623 z m 279 567 q 257 581 243 581 q 227 581 217 566 q 207 550 207 531 l 207 128 q 207 110 216 97 q 225 85 239 85 q 252 85 266 96 q 279 108 279 118 z"},"1":{"x_min":0,"x_max":375,"ha":375,"o":"m 102 578 q 58 563 27 563 q 12 563 12 580 l 12 599 q 12 610 17 616 q 21 622 39 628 q 62 638 103 668 q 143 698 182 748 q 211 786 217 789 q 222 792 235 792 l 276 792 l 276 86 q 276 75 292 67 q 307 60 310 52 q 313 45 313 13 q 313 0 296 0 l 72 0 q 58 0 55 4 q 52 9 52 26 q 52 50 54 56 q 57 62 75 67 q 102 76 102 91 z"},"5":{"x_min":0,"x_max":490,"ha":490,"o":"m 87 780 l 321 780 q 336 780 343 787 q 352 796 356 798 q 360 799 373 799 q 393 799 398 796 q 404 793 404 784 q 404 782 402 766 l 394 662 q 392 646 388 643 q 385 639 371 639 l 141 639 l 133 488 q 181 521 240 521 q 336 521 398 448 q 459 376 459 264 q 459 142 388 67 q 317 -8 212 -8 q 125 -8 77 47 q 30 102 30 162 q 30 196 48 222 q 66 248 100 248 q 129 248 147 228 q 165 208 165 173 q 165 158 161 141 q 154 112 154 103 q 154 86 167 71 q 180 55 207 55 q 229 55 245 67 q 261 79 266 101 q 271 123 271 189 l 270 277 q 270 377 254 414 q 239 451 202 451 q 150 451 129 384 q 124 369 119 364 q 114 360 101 359 l 79 358 q 62 358 62 373 q 62 377 62 386 z"}}}
